<svg width="491" height="158" viewBox="0 0 491 158" fill="none" xmlns="http://www.w3.org/2000/svg">
  <g clip-path="url(#clip0_6_2)">
    <path d="M490.39 0H0V157.2H490.39V0Z" fill="#EA3337"/>
    <path d="M400.77 104.2H469.38V117H400.77V121.22H469.38V136.2H383.74V85H469.38V99.98H400.77V104.2Z" fill="white"/>
    <path d="M378.63 85V117H361.99L378.63 127.24V136.2H361.48L351.5 129.8L344.72 125.58L344.46 125.32L337.93 121.22L334.6 119.17L331.27 116.99H310.15V136.19H293V84.99H378.64L378.63 85ZM361.6 104.2V99.98H310.14V104.2H361.6Z" fill="white"/>
    <path d="M202.38 85H287.89V136.2H202.38V85ZM270.86 117V104.2H219.4V117H270.86Z" fill="white"/>
    <path d="M197.26 99.85H163.08V136.2H145.93V99.85H111.75V85H197.26V99.85Z" fill="white"/>
    <path d="M106.64 99.98H38.02V104.2H106.63V136.2H21V121.22H89.48V117H21V85H106.64V99.98Z" fill="white"/>
    <path d="M180.49 21L197.39 27.4V72.2H111.75V21H180.49ZM180.23 53V40.2H128.77V53H180.23Z" fill="white"/>
    <path d="M21 21H106.64V72.2H89.49V57.22H38.03V72.2H21.01V21H21ZM89.48 40.2V35.98H38.02V40.2H89.48Z" fill="white"/>
    <path fill-rule="evenodd" clip-rule="evenodd" d="M452.25 21H383.75V38.02H424.658L410.77 46.6L407.31 48.78L400.91 52.75L383.76 63.37V72.2H400.91L411.28 65.8L418.06 61.58H418.19L425.1 57.23L426.51 56.33L442.38 46.6L445.84 44.42L452.24 40.45L452.36 40.3757V72.2H469.38V38.02H469.39V29.83H469.4V21H469.39H469.38H452.36H452.25Z" fill="#F5C443"/>
  </g>
  <defs>
    <clipPath id="clip0_6_2">
      <rect width="490.39" height="157.2" fill="white"/>
    </clipPath>
  </defs>
</svg>