<svg width="24px"  height="24px"  viewBox="0 0 24 24"  fill="none" xmlns="http://www.w3.org/2000/svg">
  <path fill-rule="evenodd" clip-rule="evenodd" d="M11.999 13.15C9.612 13.15 7.67 11.208 7.67 8.82C7.67 8.406 8.006 8.07 8.42 8.07C8.834 8.07 9.17 8.406 9.17 8.82C9.17 10.38 10.439 11.65 11.999 11.65C13.56 11.65 14.829 10.38 14.829 8.82C14.829 8.406 15.165 8.07 15.579 8.07C15.993 8.07 16.329 8.406 16.329 8.82C16.329 11.208 14.387 13.15 11.999 13.15ZM16.217 2.5H7.782C4.623 2.5 2.5 4.721 2.5 8.026V15.974C2.5 19.279 4.623 21.5 7.782 21.5H16.216C19.376 21.5 21.5 19.279 21.5 15.974V8.026C21.5 4.721 19.377 2.5 16.217 2.5Z" fill="#FFFFFF" />
</svg>